<?xml version="1.0" encoding="utf-8"?>
<!-- Generator: Adobe Illustrator 16.0.0, SVG Export Plug-In . SVG Version: 6.00 Build 0)  -->
<!DOCTYPE svg PUBLIC "-//W3C//DTD SVG 1.1//EN" "http://www.w3.org/Graphics/SVG/1.1/DTD/svg11.dtd">
<svg version="1.1" id="Layer_1" xmlns="http://www.w3.org/2000/svg" xmlns:xlink="http://www.w3.org/1999/xlink" x="0px" y="0px"
	 width="1000px" height="1000px" viewBox="0 0 1000 1000" enable-background="new 0 0 1000 1000" xml:space="preserve">
<rect x="89.301" y="90.699" fill="#D36954" width="384.124" height="384.13"/>
<polygon fill="#D36954" points="281.36,161.164 210.901,90.699 281.36,20.24 351.824,90.699 "/>
<polygon fill="#7B9DB7" points="907.641,353.229 837.17,282.764 907.641,212.306 978.111,282.764 "/>
<polygon fill="#B2BAC1" points="715.576,979.504 645.129,909.045 715.576,838.586 786.047,909.045 "/>
<polygon fill="#4A4E4D" points="89.301,787.439 18.836,716.992 89.301,646.521 159.759,716.992 "/>
<rect x="523.517" y="90.699" fill="#7B9DB7" width="384.124" height="384.13"/>
<rect x="89.301" y="524.928" fill="#4A4E4D" width="384.124" height="384.117"/>
<rect x="523.517" y="524.928" fill="#B2BAC1" width="384.124" height="384.117"/>
<polygon fill="#88AABF" points="836.26,474.829 907.641,474.829 907.641,90.699 621.254,90.699 "/>
<polygon fill="#D87160" points="395.501,474.829 473.425,474.829 473.425,90.699 180.496,90.699 "/>
<polygon fill="#BCC3C9" points="838.274,909.045 907.641,909.045 907.641,524.928 623.281,524.928 "/>
<polygon fill="#535655" points="397.522,909.045 473.425,909.045 473.425,524.928 182.517,524.928 "/>
<g>
	<path fill="#FFFFFF" d="M242.15,316.916l-20.244,61.311h-26.028l66.516-194.921h30.077l66.516,194.921h-26.896l-20.823-61.311
		H242.15z M306.353,297.25l-19.376-56.104c-4.338-12.725-7.23-24.293-10.122-35.572h-0.579c-2.892,11.279-5.784,23.425-9.833,35.282
		l-19.087,56.394H306.353z"/>
</g>
<g>
	<path fill="#FFFFFF" d="M655.698,183.306h25.449v173.809h83.289v21.112H655.698V183.306z"/>
</g>
<g>
	<path fill="#FFFFFF" d="M210.338,622.446h104.979v21.111h-79.53v64.781h73.457v20.822h-73.457v88.206h-25.45V622.446z"/>
</g>
<g>
	<path fill="#FFFFFF" d="M687.51,756.057l-20.244,61.311h-26.027l66.516-194.921h30.076l66.517,194.921h-26.896l-20.822-61.311
		H687.51z M751.712,736.392l-19.376-56.105c-4.338-12.725-7.23-24.292-10.122-35.571h-0.578
		c-2.893,11.279-5.784,23.425-9.833,35.282l-19.087,56.395H751.712z"/>
</g>
</svg>
