<?xml version="1.0" encoding="utf-8"?>
<!-- Generator: Adobe Illustrator 16.0.0, SVG Export Plug-In . SVG Version: 6.00 Build 0)  -->
<!DOCTYPE svg PUBLIC "-//W3C//DTD SVG 1.1//EN" "http://www.w3.org/Graphics/SVG/1.1/DTD/svg11.dtd">
<svg version="1.1" id="Layer_1" xmlns="http://www.w3.org/2000/svg" xmlns:xlink="http://www.w3.org/1999/xlink" x="0px" y="0px"
	 width="1000px" height="1000px" viewBox="0 0 1000 1000" enable-background="new 0 0 1000 1000" xml:space="preserve">
<path fill="#B2BAC1" d="M397.679,434.629c0,10.9-8.839,19.733-19.74,19.733H113.365c-10.9,0-19.737-8.833-19.737-19.733V251.288
	c0-10.9,8.837-19.74,19.737-19.74h264.574c10.9,0,19.74,8.839,19.74,19.74V434.629z"/>
<circle fill="#FFFFFF" cx="382.923" cy="342.952" r="8.996"/>
<rect x="108.034" y="246.634" fill="#7B9DB7" width="260.053" height="192.644"/>
<rect x="383.25" y="511.3" fill="#7B9DB7" width="409.752" height="222.896"/>
<path fill="#B2BAC1" d="M137.918,481.772c0,10.9-8.836,19.737-19.736,19.737H43.926c-10.9,0-19.736-8.837-19.736-19.737V323.96
	c0-10.9,8.836-19.736,19.736-19.736h74.257c10.9,0,19.736,8.836,19.736,19.736V481.772z"/>
<path fill="#FFFFFF" d="M90.049,484.604c0,4.971-4.026,8.997-8.997,8.997c-4.967,0-8.992-4.026-8.992-8.997
	c0-4.967,4.025-8.993,8.992-8.993C86.023,475.611,90.049,479.637,90.049,484.604z"/>
<rect x="35.504" y="315.975" fill="#7B9DB7" width="91.1" height="153.184"/>
<path fill="#B2BAC1" d="M334.428,832.466c0,10.893-8.84,19.732-19.74,19.732H187.927c-10.9,0-19.74-8.84-19.74-19.732V508.988
	c0-10.896,8.84-19.733,19.74-19.733h126.761c10.9,0,19.74,8.836,19.74,19.733V832.466z"/>
<path fill="#4A4E4D" d="M314.409,537.989c0,10.899-8.839,19.739-19.739,19.739h-87.594c-10.9,0-19.74-8.84-19.74-19.739v-1.15
	c0-10.892,8.839-19.732,19.74-19.732h87.594c10.9,0,19.739,8.841,19.739,19.732V537.989z"/>
<path fill="#4A4E4D" d="M313.613,603.057c0,3.127-2.536,5.67-5.671,5.67H191.266c-3.135,0-5.671-2.543-5.671-5.67l0,0
	c0-3.136,2.537-5.672,5.671-5.672h116.676C311.077,597.385,313.613,599.921,313.613,603.057L313.613,603.057z"/>
<path fill="#4A4E4D" d="M313.613,630.037c0,3.128-2.536,5.671-5.671,5.671H191.266c-3.135,0-5.671-2.543-5.671-5.671l0,0
	c0-3.135,2.537-5.671,5.671-5.671h116.676C311.077,624.366,313.613,626.902,313.613,630.037L313.613,630.037z"/>
<path fill="#4A4E4D" d="M313.613,657.019c0,3.128-2.536,5.671-5.671,5.671H191.266c-3.135,0-5.671-2.543-5.671-5.671l0,0
	c0-3.135,2.537-5.671,5.671-5.671h116.676C311.077,651.348,313.613,653.884,313.613,657.019L313.613,657.019z"/>
<path fill="#4A4E4D" d="M313.613,684c0,3.127-2.536,5.67-5.671,5.67H191.266c-3.135,0-5.671-2.543-5.671-5.67l0,0
	c0-3.135,2.537-5.671,5.671-5.671h116.676C311.077,678.329,313.613,680.865,313.613,684L313.613,684z"/>
<path fill="#4A4E4D" d="M313.613,710.981c0,3.127-2.536,5.67-5.671,5.67H191.266c-3.135,0-5.671-2.543-5.671-5.67l0,0
	c0-3.136,2.537-5.671,5.671-5.671h116.676C311.077,705.311,313.613,707.846,313.613,710.981L313.613,710.981z"/>
<path fill="#4A4E4D" d="M313.613,737.963c0,3.127-2.536,5.671-5.671,5.671H191.266c-3.135,0-5.671-2.544-5.671-5.671l0,0
	c0-3.136,2.537-5.672,5.671-5.672h116.676C311.077,732.291,313.613,734.827,313.613,737.963L313.613,737.963z"/>
<path fill="#4A4E4D" d="M287.72,779.74c0,4.971-4.025,8.996-8.996,8.996c-4.97,0-8.996-4.025-8.996-8.996
	c0-4.964,4.026-8.989,8.996-8.989C283.695,770.751,287.72,774.776,287.72,779.74z"/>
<path fill="#4A4E4D" d="M312.09,779.74c0,4.971-4.025,8.996-8.996,8.996c-4.97,0-8.996-4.025-8.996-8.996
	c0-4.964,4.025-8.989,8.996-8.989C308.065,770.751,312.09,774.776,312.09,779.74z"/>
<path fill="#4A4E4D" d="M814.516,735.896c0,11.722-9.499,21.222-21.214,21.222H382.951c-11.716,0-21.215-9.5-21.215-21.222V509.593
	c0-11.712,9.5-21.214,21.215-21.214h410.351c11.715,0,21.214,9.502,21.214,21.214V735.896z"/>
<path fill="#4A4E4D" d="M605.9,826.57c0,9.812-7.955,17.774-17.774,17.774l0,0c-9.812,0-17.774-7.963-17.774-17.774V751.97
	c0-9.812,7.962-17.774,17.774-17.774l0,0c9.819,0,17.774,7.963,17.774,17.774V826.57z"/>
<rect x="383.25" y="511.3" fill="#7B9DB7" width="409.752" height="222.896"/>
<path fill="#B2BAC1" d="M441.741,389.687v13.919c0,10.9,8.84,19.737,19.74,19.737h492.907c10.899,0,19.739-8.836,19.739-19.737
	v-13.919H441.741z"/>
<path fill="#4A4E4D" d="M934.321,393.967c0,11.715-9.499,21.215-21.216,21.215H502.755c-11.715,0-21.215-9.5-21.215-21.215V167.658
	c0-11.709,9.5-21.215,21.215-21.215h410.351c11.717,0,21.216,9.506,21.216,21.215V393.967z"/>
<rect x="503.055" y="169.365" fill="#7B9DB7" width="409.752" height="222.895"/>
<path fill="#4A4E4D" d="M500.654,836.858c0,7.751,6.289,14.034,14.035,14.034h146.874c7.744,0,14.034-6.283,14.034-14.034l0,0
	c0-7.752-6.29-14.035-14.034-14.035H514.689C506.943,822.823,500.654,829.106,500.654,836.858L500.654,836.858z"/>
<path fill="#B2BAC1" d="M747.349,392.26c0.108,0.584,0.184,1.18,0.184,1.792c0,5.647-4.576,10.227-10.227,10.227h-58.75
	c-5.651,0-10.228-4.58-10.228-10.227c0-0.612,0.075-1.207,0.185-1.792H441.741v13.919c0,10.9,8.84,19.735,19.74,19.735h492.907
	c10.899,0,19.739-8.835,19.739-19.735V392.26H747.349z"/>
<polygon fill="#88AABF" points="912.807,169.365 643.728,169.365 768.489,392.26 912.807,392.26 "/>
<polygon fill="#88AABF" points="793.002,511.3 528.975,511.3 653.737,734.195 793.002,734.195 "/>
<polygon fill="#88AABF" points="280.04,439.277 368.086,439.277 368.086,246.634 172.207,246.634 "/>
<polygon fill="#88AABF" points="126.604,458.32 126.604,315.975 46.925,315.975 "/>
<path fill="#D36954" d="M750.885,290.37c0,18.546-15.035,33.581-33.585,33.581c-18.542,0-33.577-15.034-33.577-33.581
	c0-18.546,15.035-33.581,33.577-33.581C735.85,256.789,750.885,271.824,750.885,290.37z"/>
<path fill="#D36954" d="M517.245,662.689c0,12.062-9.784,21.848-21.854,21.848c-12.063,0-21.847-9.785-21.847-21.848
	c0-12.076,9.784-21.854,21.847-21.854C507.461,640.835,517.245,650.613,517.245,662.689z"/>
<path fill="#D36954" d="M739.154,559.265c0,12.07-9.784,21.854-21.854,21.854c-12.062,0-21.847-9.784-21.847-21.854
	c0-12.069,9.784-21.854,21.847-21.854C729.37,537.411,739.154,547.195,739.154,559.265z"/>
<path fill="#D36954" d="M676.972,678.329c0,6.297-5.1,11.396-11.396,11.396c-6.29,0-11.39-5.099-11.39-11.396
	s5.1-11.396,11.39-11.396C671.872,666.933,676.972,672.032,676.972,678.329z"/>
<path fill="#D36954" d="M449.105,557.729c0,6.29-5.1,11.39-11.396,11.39c-6.29,0-11.39-5.1-11.39-11.39
	c0-6.297,5.1-11.396,11.39-11.396C444.005,546.332,449.105,551.432,449.105,557.729z"/>
<path fill="#D36954" d="M249.451,333.959c0,6.293-5.099,11.393-11.396,11.393c-6.29,0-11.39-5.1-11.39-11.393
	s5.1-11.393,11.39-11.393C244.352,322.566,249.451,327.667,249.451,333.959z"/>
<path fill="#D36954" d="M345.82,290.37c0,6.293-5.1,11.393-11.396,11.393c-6.29,0-11.39-5.1-11.39-11.393
	c0-6.293,5.1-11.393,11.39-11.393C340.721,278.977,345.82,284.076,345.82,290.37z"/>
<path fill="#D36954" d="M331.895,392.566c0,15.908-12.892,28.8-28.81,28.8c-15.898,0-28.791-12.892-28.791-28.8
	c0-15.908,12.893-28.8,28.791-28.8C319.002,363.766,331.895,376.658,331.895,392.566z"/>
<path fill="#D36954" d="M81.056,439.277c0,8.006-6.487,14.493-14.5,14.493c-8,0-14.487-6.487-14.487-14.493
	c0-8.007,6.487-14.494,14.487-14.494C74.569,424.783,81.056,431.271,81.056,439.277z"/>
<path fill="#D36954" d="M95.549,345.353c0,8.006-6.486,14.494-14.5,14.494c-8,0-14.487-6.487-14.487-14.494
	c0-8.007,6.487-14.494,14.487-14.494C89.063,330.859,95.549,337.346,95.549,345.353z"/>
<g>
	<polygon fill="#D36954" points="716.512,286.98 711.731,288.102 503.055,287.428 503.055,294.396 682.452,294.97 503.055,337.054 
		503.055,344.207 696.603,298.801 601.358,392.26 611.313,392.26 700.321,304.915 649.31,392.26 657.367,392.26 708.896,304.034 
		710.603,392.26 717.566,392.26 715.675,294.331 718.103,293.759 	"/>
	<polygon fill="#D36954" points="713.812,558.571 663.385,674.63 501.157,659.718 587.841,511.3 579.782,511.3 495.486,655.625 
		442.041,558.367 490.006,511.3 480.058,511.3 438.001,552.561 404.363,511.3 395.38,511.3 427.618,550.848 383.25,536.684 
		383.25,544 435.336,560.625 492.338,664.361 495.391,662.689 495.072,666.157 665.256,681.796 665.575,678.329 668.771,679.716 
		720.504,560.652 717.308,559.265 720.789,559.197 719.864,511.3 712.901,511.3 	"/>
	<polygon fill="#D36954" points="126.604,462.094 126.604,454.784 80.509,440.073 126.604,430.971 126.604,423.872 70.761,434.898 
		84.075,348.623 126.604,345.536 126.604,338.556 80.804,341.881 81.056,345.353 77.615,344.822 63.122,438.747 66.562,439.277 
		65.505,442.596 	"/>
	<path fill="#D36954" d="M368.086,293.96v-6.963l-33.648-0.108l-0.011,3.481l-1.435-3.172l-95.808,43.335l-99.266,7.204v6.98
		l98.909-7.177l58.767,52.959l-157.676,31.136v7.099l163.799-32.346l34.96,42.89h8.982l-38.694-47.469l0.531-1.727l60.589-14.215
		v-7.153l-58.226,13.661l27.137-88.512L368.086,293.96z M301.367,386.321l-57.022-51.386l84.493-38.218L301.367,386.321z"/>
</g>
</svg>
