<?xml version="1.0" encoding="utf-8"?>
<!-- Generator: Adobe Illustrator 16.0.0, SVG Export Plug-In . SVG Version: 6.00 Build 0)  -->
<!DOCTYPE svg PUBLIC "-//W3C//DTD SVG 1.1//EN" "http://www.w3.org/Graphics/SVG/1.1/DTD/svg11.dtd">
<svg version="1.1" id="Layer_1" xmlns="http://www.w3.org/2000/svg" xmlns:xlink="http://www.w3.org/1999/xlink" x="0px" y="0px"
	 width="1000px" height="1000px" viewBox="0 0 1000 1000" enable-background="new 0 0 1000 1000" xml:space="preserve">
<g>
	<rect x="166.566" y="83.091" fill="#B2BAC1" width="665.984" height="180.551"/>
	<rect x="166.566" y="286.111" fill="#E1E8E9" width="665.984" height="582.836"/>
	<rect x="166.566" y="890.934" fill="#E1E8E9" width="665.984" height="89.297"/>
	<rect x="166.579" y="17.258" fill="#D36954" width="665.96" height="65.833"/>
	<path fill="#4A4E4D" d="M229.79,50.178c0,12.494-10.137,22.625-22.637,22.625c-12.488,0-22.625-10.131-22.625-22.625
		c0-12.5,10.137-22.631,22.625-22.631C219.652,27.546,229.79,37.678,229.79,50.178z"/>
	<path fill="#4A4E4D" d="M367.29,51.202c0,5.111-4.146,9.258-9.258,9.258H256.839c-5.111,0-9.257-4.147-9.257-9.258l0,0
		c0-5.111,4.146-9.257,9.257-9.257h101.193C363.144,41.945,367.29,46.091,367.29,51.202L367.29,51.202z"/>
	<path fill="#FFFFFF" d="M229.79,932.725c0,12.5-10.137,22.625-22.637,22.625c-12.488,0-22.625-10.125-22.625-22.625
		s10.137-22.625,22.625-22.625C219.652,910.1,229.79,920.225,229.79,932.725z"/>
	<path fill="#FFFFFF" d="M329.066,933.75c0,5.11-2.82,9.257-6.304,9.257h-68.876c-3.484,0-6.304-4.146-6.304-9.257l0,0
		c0-5.111,2.82-9.258,6.304-9.258h68.876C326.246,924.492,329.066,928.639,329.066,933.75L329.066,933.75z"/>
	<path fill="#FFFFFF" d="M422.027,933.75c0,5.11-2.821,9.257-6.304,9.257h-68.877c-3.483,0-6.304-4.146-6.304-9.257l0,0
		c0-5.111,2.821-9.258,6.304-9.258h68.877C419.207,924.492,422.027,928.639,422.027,933.75L422.027,933.75z"/>
	<path fill="#FFFFFF" d="M514.988,933.75c0,5.11-2.821,9.257-6.305,9.257h-68.876c-3.484,0-6.305-4.146-6.305-9.257l0,0
		c0-5.111,2.821-9.258,6.305-9.258h68.876C512.167,924.492,514.988,928.639,514.988,933.75L514.988,933.75z"/>
	<path fill="#FFFFFF" d="M607.948,933.75c0,5.11-2.82,9.257-6.304,9.257h-68.877c-3.483,0-6.305-4.146-6.305-9.257l0,0
		c0-5.111,2.821-9.258,6.305-9.258h68.877C605.128,924.492,607.948,928.639,607.948,933.75L607.948,933.75z"/>
	<path fill="#FFFFFF" d="M700.909,933.75c0,5.11-2.821,9.257-6.304,9.257h-68.877c-3.484,0-6.305-4.146-6.305-9.257l0,0
		c0-5.111,2.82-9.258,6.305-9.258h68.877C698.088,924.492,700.909,928.639,700.909,933.75L700.909,933.75z"/>
	<path fill="#FFFFFF" d="M793.869,933.75c0,5.11-2.82,9.257-6.304,9.257h-68.876c-3.484,0-6.305-4.146-6.305-9.257l0,0
		c0-5.111,2.82-9.258,6.305-9.258h68.876C791.049,924.492,793.869,928.639,793.869,933.75L793.869,933.75z"/>
	<path fill="#4A4E4D" d="M809.576,51.202c0,5.111-4.146,9.258-9.258,9.258H699.137c-5.11,0-9.257-4.147-9.257-9.258l0,0
		c0-5.111,4.146-9.257,9.257-9.257h101.182C805.43,41.945,809.576,46.091,809.576,51.202L809.576,51.202z"/>
	<path fill="#4A4E4D" d="M675.861,51.202c0,5.111-4.146,9.258-9.258,9.258H565.422c-5.111,0-9.258-4.147-9.258-9.258l0,0
		c0-5.111,4.146-9.257,9.258-9.257h101.182C671.715,41.945,675.861,46.091,675.861,51.202L675.861,51.202z"/>
	<g>
		<g>
			<path fill="#FFFFFF" d="M789.35,169.301c2.242-2.248,5.883-2.248,8.124,0l0,0c2.242,2.242,2.242,5.876,0,8.131l-36.114,36.125
				c-2.241,2.242-5.882,2.242-8.123,0l0,0c-2.268-2.248-2.268-5.888-0.025-8.136L789.35,169.301z"/>
			<path fill="#FFFFFF" d="M797.474,169.301c2.242,2.242,2.242,5.883,0,8.131l0,0c-2.241,2.236-5.882,2.236-8.124,0L753.211,141.3
				c-2.217-2.242-2.217-5.882,0-8.124l0,0c2.267-2.248,5.907-2.248,8.148-0.006L797.474,169.301z"/>
		</g>
		<g>
			<path fill="#FFFFFF" d="M209.768,169.301c-2.242-2.248-5.882-2.248-8.125,0l0,0c-2.254,2.242-2.254,5.876,0,8.131l36.126,36.125
				c2.242,2.242,5.882,2.242,8.125,0l0,0c2.254-2.248,2.254-5.888,0-8.136L209.768,169.301z"/>
			<path fill="#FFFFFF" d="M201.644,169.301c-2.254,2.242-2.254,5.883,0,8.131l0,0c2.242,2.236,5.882,2.236,8.125,0l36.126-36.132
				c2.242-2.242,2.242-5.882,0-8.124l0,0c-2.242-2.248-5.882-2.248-8.125-0.006L201.644,169.301z"/>
		</g>
	</g>
	<g>
		<path fill="#FFFFFF" d="M427.813,240.691c0,7.245-5.87,13.115-13.115,13.115c-7.244,0-13.115-5.87-13.115-13.115
			c0-7.238,5.871-13.115,13.115-13.115C421.943,227.577,427.813,233.453,427.813,240.691z"/>
		<path fill="#FFFFFF" d="M470.243,240.691c0,7.245-5.87,13.115-13.115,13.115c-7.244,0-13.115-5.87-13.115-13.115
			c0-7.238,5.871-13.115,13.115-13.115C464.373,227.577,470.243,233.453,470.243,240.691z"/>
		<path fill="#FFFFFF" d="M512.674,240.691c0,7.245-5.871,13.115-13.115,13.115s-13.115-5.87-13.115-13.115
			c0-7.238,5.871-13.115,13.115-13.115S512.674,233.453,512.674,240.691z"/>
		<path fill="#FFFFFF" d="M555.104,240.691c0,7.245-5.87,13.115-13.115,13.115c-7.244,0-13.114-5.87-13.114-13.115
			c0-7.238,5.87-13.115,13.114-13.115C549.233,227.577,555.104,233.453,555.104,240.691z"/>
		<path fill="#FFFFFF" d="M597.533,240.691c0,7.245-5.869,13.115-13.114,13.115c-7.244,0-13.114-5.87-13.114-13.115
			c0-7.238,5.87-13.115,13.114-13.115C591.664,227.577,597.533,233.453,597.533,240.691z"/>
	</g>
	<path fill="#B2BAC1" d="M316.82,482.176c0,19.322-17.044,34.986-38.042,34.986h-40.779c-21.01,0-38.042-15.664-38.042-34.986
		v-86.373c0-19.323,17.032-34.987,38.042-34.987h40.779c20.998,0,38.042,15.664,38.042,34.987V482.176z"/>
	<path fill="#B2BAC1" d="M477.596,482.176c0,19.322-17.032,34.986-38.042,34.986h-40.767c-21.022,0-38.042-15.664-38.042-34.986
		v-86.373c0-19.323,17.02-34.987,38.042-34.987h40.767c21.01,0,38.042,15.664,38.042,34.987V482.176z"/>
	<path fill="#B2BAC1" d="M638.373,482.176c0,19.322-17.033,34.986-38.043,34.986h-40.767c-21.01,0-38.042-15.664-38.042-34.986
		v-86.373c0-19.323,17.032-34.987,38.042-34.987h40.767c21.01,0,38.043,15.664,38.043,34.987V482.176z"/>
	<path fill="#B2BAC1" d="M799.162,482.176c0,19.322-17.045,34.986-38.055,34.986H720.34c-21.01,0-38.042-15.664-38.042-34.986
		v-86.373c0-19.323,17.032-34.987,38.042-34.987h40.768c21.01,0,38.055,15.664,38.055,34.987V482.176z"/>
	<path fill="#D36954" d="M316.82,537.221c0,4.821-3.906,8.727-8.739,8.727h-99.385c-4.822,0-8.739-3.905-8.739-8.727l0,0
		c0-4.834,3.917-8.752,8.739-8.752h99.385C312.914,528.469,316.82,532.387,316.82,537.221L316.82,537.221z"/>
	<path fill="#D36954" d="M477.596,537.221c0,4.821-3.905,8.727-8.727,8.727h-99.397c-4.822,0-8.727-3.905-8.727-8.727l0,0
		c0-4.834,3.905-8.752,8.727-8.752h99.397C473.691,528.469,477.596,532.387,477.596,537.221L477.596,537.221z"/>
	<path fill="#D36954" d="M638.373,537.221c0,4.821-3.906,8.727-8.728,8.727H530.26c-4.833,0-8.738-3.905-8.738-8.727l0,0
		c0-4.834,3.905-8.752,8.738-8.752h99.386C634.467,528.469,638.373,532.387,638.373,537.221L638.373,537.221z"/>
	<path fill="#D36954" d="M799.149,537.221c0,4.821-3.905,8.727-8.728,8.727h-99.373c-4.846,0-8.751-3.905-8.751-8.727l0,0
		c0-4.834,3.905-8.752,8.751-8.752h99.373C795.244,528.469,799.149,532.387,799.149,537.221L799.149,537.221z"/>
	<path fill="#B2BAC1" d="M316.82,757.846c0,19.322-17.044,34.992-38.042,34.992h-40.779c-21.01,0-38.042-15.67-38.042-34.992
		v-86.367c0-19.335,17.032-34.993,38.042-34.993h40.779c20.998,0,38.042,15.658,38.042,34.993V757.846z"/>
	<path fill="#B2BAC1" d="M477.596,757.846c0,19.322-17.032,34.992-38.042,34.992h-40.767c-21.022,0-38.042-15.67-38.042-34.992
		v-86.367c0-19.335,17.02-34.993,38.042-34.993h40.767c21.01,0,38.042,15.658,38.042,34.993V757.846z"/>
	<path fill="#B2BAC1" d="M638.373,757.846c0,19.322-17.033,34.992-38.043,34.992h-40.767c-21.01,0-38.042-15.67-38.042-34.992
		v-86.367c0-19.335,17.032-34.993,38.042-34.993h40.767c21.01,0,38.043,15.658,38.043,34.993V757.846z"/>
	<path fill="#B2BAC1" d="M799.162,757.846c0,19.322-17.045,34.992-38.055,34.992H720.34c-21.01,0-38.042-15.67-38.042-34.992
		v-86.367c0-19.335,17.032-34.993,38.042-34.993h40.768c21.01,0,38.055,15.658,38.055,34.993V757.846z"/>
	<path fill="#D36954" d="M316.82,812.884c0,4.821-3.906,8.739-8.739,8.739h-99.385c-4.822,0-8.739-3.918-8.739-8.739l0,0
		c0-4.833,3.917-8.739,8.739-8.739h99.385C312.914,804.145,316.82,808.051,316.82,812.884L316.82,812.884z"/>
	<path fill="#D36954" d="M477.596,812.884c0,4.821-3.905,8.739-8.727,8.739h-99.397c-4.822,0-8.727-3.918-8.727-8.739l0,0
		c0-4.833,3.905-8.739,8.727-8.739h99.397C473.691,804.145,477.596,808.051,477.596,812.884L477.596,812.884z"/>
	<path fill="#D36954" d="M638.373,812.884c0,4.821-3.906,8.739-8.728,8.739H530.26c-4.833,0-8.738-3.918-8.738-8.739l0,0
		c0-4.833,3.905-8.739,8.738-8.739h99.386C634.467,804.145,638.373,808.051,638.373,812.884L638.373,812.884z"/>
	<path fill="#D36954" d="M799.149,812.884c0,4.821-3.905,8.739-8.728,8.739h-99.373c-4.846,0-8.751-3.918-8.751-8.739l0,0
		c0-4.833,3.905-8.739,8.751-8.739h99.373C795.244,804.145,799.149,808.051,799.149,812.884L799.149,812.884z"/>
	<rect x="166.566" y="593.283" fill="#4A4E4D" width="665.973" height="6.172"/>
</g>
</svg>
