<?xml version="1.0" encoding="utf-8"?>
<!-- Generator: Adobe Illustrator 16.0.0, SVG Export Plug-In . SVG Version: 6.00 Build 0)  -->
<!DOCTYPE svg PUBLIC "-//W3C//DTD SVG 1.1//EN" "http://www.w3.org/Graphics/SVG/1.1/DTD/svg11.dtd">
<svg version="1.1" id="Layer_1" xmlns="http://www.w3.org/2000/svg" xmlns:xlink="http://www.w3.org/1999/xlink" x="0px" y="0px"
	 width="1000px" height="1000px" viewBox="0 0 1000 1000" enable-background="new 0 0 1000 1000" xml:space="preserve">
<path fill="#272828" d="M682.413,688.697c0,7.209-5.851,13.045-13.046,13.045l-458.364,9.211c-7.209,0-13.047-5.838-13.047-13.045
	L169.185,389.36c0-7.196,5.837-13.046,13.046-13.046l487.136-21.852c7.195,0,13.046,5.838,13.046,13.045V688.697z"/>
<g>
	<polygon fill="#BED875" points="861.481,453.582 391.832,654.252 304.6,450.174 774.262,249.467 	"/>
	<polygon fill="#AACE55" points="848.197,448.389 397.279,641.08 317.91,455.381 768.814,262.639 	"/>
	<path fill="#BED875" d="M613.636,482.883c-0.038-0.025-0.038-0.025-0.038-0.076l-5.132-12.051
		c15.737-15.764,20.053-43.666,8.919-69.746c-13.825-32.369-42.609-40.936-68.789-29.752
		c-26.167,11.196-39.893,37.904-26.029,70.287c11.122,26.041,34.294,42.27,56.561,41.74l5.121,12.076
		c0.025,0.014,0.076,0.014,0.063,0.039c-21.965,15.121-35.013,40.004-35.854,66.576l138.082-59.016
		C666.801,485.211,639.715,477.436,613.636,482.883z"/>
	<path fill="#BED875" d="M773.33,310.016c6.479,15.211-0.604,32.873-15.812,39.34c-15.234,6.566-32.86-0.516-39.352-15.764
		c-6.517-15.246,0.553-32.873,15.764-39.39C749.164,287.762,766.814,294.744,773.33,310.016z"/>
	<path fill="#BED875" d="M822.961,426.184c3.094,7.283-0.265,15.699-7.549,18.795c-7.259,3.082-15.726-0.277-18.833-7.561
		c-3.095-7.297,0.313-15.662,7.573-18.783C811.437,415.54,819.853,418.898,822.961,426.184z"/>
	<path fill="#BED875" d="M426.365,595.691c3.157,7.232-0.252,15.662-7.536,18.77c-7.271,3.119-15.688-0.252-18.808-7.498
		c-3.132-7.309,0.303-15.713,7.56-18.844C414.867,585.023,423.245,588.383,426.365,595.691z"/>
	<path fill="#BED875" d="M405.544,467.184c6.492,15.246-0.565,32.834-15.788,39.389c-15.248,6.49-32.873-0.58-39.389-15.803
		c-6.518-15.258,0.541-32.846,15.825-39.352C381.415,444.877,399.014,451.936,405.544,467.184z"/>
</g>
<g>
	<polygon fill="#BED875" points="763.883,749.523 262.631,651.561 305.178,433.732 806.455,531.682 	"/>
	<polygon fill="#AACE55" points="755.806,737.762 274.546,643.723 313.267,445.531 794.554,539.518 	"/>
	<path fill="#BED875" d="M542.406,634.463c-0.013-0.037-0.013-0.037,0.013-0.074l2.516-12.859
		c21.877-4.186,41.138-24.846,46.573-52.674c6.779-34.545-12.217-57.793-40.17-63.266c-27.928-5.447-54.285,8.945-61.015,43.504
		c-5.447,27.789,4.605,54.232,23.324,66.311l-2.553,12.869c0.013,0.037,0.05,0.062,0.024,0.062
		c-26.67,0.178-51.441,13.424-67.078,34.924l147.378,28.799C585.066,666.266,567.038,644.615,542.406,634.463z"/>
	<path fill="#BED875" d="M771.657,581.236c-3.207,16.215-18.983,26.859-35.199,23.662c-16.28-3.158-26.885-18.906-23.688-35.162
		c3.169-16.291,18.934-26.883,35.188-23.727C764.173,549.246,774.828,564.943,771.657,581.236z"/>
	<path fill="#BED875" d="M747.416,705.203c-1.536,7.775-9.046,12.844-16.808,11.32c-7.736-1.543-12.858-9.068-11.335-16.844
		c1.534-7.773,9.069-12.783,16.832-11.283C743.867,689.932,748.938,697.428,747.416,705.203z"/>
	<path fill="#BED875" d="M324.112,622.537c-1.472,7.75-9.008,12.809-16.795,11.271c-7.75-1.496-12.819-9.008-11.322-16.768
		c1.508-7.801,9.07-12.818,16.831-11.324C320.602,607.252,325.635,614.725,324.112,622.537z"/>
	<path fill="#BED875" d="M379.112,504.547c-3.194,16.24-18.92,26.834-35.199,23.699c-16.254-3.195-26.859-18.957-23.702-35.211
		c3.183-16.279,18.921-26.871,35.212-23.652C371.69,472.529,382.283,488.254,379.112,504.547z"/>
</g>
<path fill="#666868" d="M658.246,710.564c0,7.193-5.838,13.029-13.046,13.029H182.231c-7.209,0-13.046-5.836-13.046-13.029V389.36
	c0-7.196,5.837-13.046,13.046-13.046H645.2c7.208,0,13.046,5.85,13.046,13.046V710.564z"/>
<path fill="#FFFFFF" d="M458.017,686.434c0,4.766,3.863,8.641,8.631,8.641h135.792c4.755,0,8.63-3.875,8.63-8.641l0,0
	c0-4.756-3.875-8.633-8.63-8.633H466.647C461.879,677.801,458.017,681.678,458.017,686.434L458.017,686.434z"/>
</svg>
