<?xml version="1.0" encoding="utf-8"?>
<!-- Generator: Adobe Illustrator 16.0.0, SVG Export Plug-In . SVG Version: 6.00 Build 0)  -->
<!DOCTYPE svg PUBLIC "-//W3C//DTD SVG 1.1//EN" "http://www.w3.org/Graphics/SVG/1.1/DTD/svg11.dtd">
<svg version="1.1" id="Layer_1" xmlns="http://www.w3.org/2000/svg" xmlns:xlink="http://www.w3.org/1999/xlink" x="0px" y="0px"
	 width="1000px" height="1000px" viewBox="0 0 1000 1000" enable-background="new 0 0 1000 1000" xml:space="preserve">
<path fill="#272828" d="M552.069,685.352c0,7.207-5.848,13.043-13.045,13.043L80.66,707.594c-7.21,0-13.046-5.838-13.046-13.047
	L43.17,408.219c0-7.209,5.837-13.047,13.045-13.047c0,0,145.718-51.013,261.81-56.221c116.091-5.209,220.999,12.152,220.999,12.152
	c7.197,0,13.045,5.85,13.045,13.059V685.352z"/>
<g>
	<polygon fill="#BED875" points="953.534,432.297 482.677,603.855 408.075,399.273 878.933,227.641 	"/>
	<polygon fill="#AACE55" points="940.802,426.496 488.716,591.273 420.807,405.072 872.894,240.32 	"/>
	<path fill="#BED875" d="M709.136,447.783c-0.064-0.014-0.064-0.014-0.064-0.014l-4.402-12.115
		c16.278-14.629,22.017-41.752,12.479-67.869c-11.8-32.42-39.515-42.384-65.819-32.848c-26.242,9.599-41.113,35.086-29.236,67.494
		c9.548,26.115,31.4,43.213,53.214,43.916l4.416,12.117c0,0,0,0,0.024,0c-22.329,13.75-36.494,37.389-38.684,63.268l138.396-50.436
		C761.081,452.965,734.964,443.859,709.136,447.783z"/>
	<path fill="#BED875" d="M874.769,286.918c5.574,15.248-2.277,32.156-17.562,37.691c-15.247,5.623-32.193-2.252-37.741-17.512
		c-5.535-15.273,2.304-32.205,17.589-37.779C852.312,263.859,869.221,271.621,874.769,286.918z"/>
	<path fill="#BED875" d="M917.251,403.375c2.644,7.334-1.143,15.334-8.415,18.027c-7.334,2.654-15.373-1.068-18.028-8.391
		c-2.666-7.271,1.133-15.361,8.393-18.029C906.496,392.291,914.573,396.078,917.251,403.375z"/>
	<path fill="#BED875" d="M519.625,548.324c2.655,7.273-1.12,15.41-8.366,18.066c-7.308,2.604-15.36-1.145-18.027-8.43
		c-2.655-7.258,1.107-15.359,8.403-18.076C508.919,537.242,516.958,540.992,519.625,548.324z"/>
	<path fill="#BED875" d="M506.089,421.365c5.562,15.232-2.327,32.129-17.574,37.701c-15.273,5.561-32.181-2.275-37.741-17.588
		c-5.574-15.258,2.227-32.141,17.599-37.689C483.608,398.18,500.477,406.08,506.089,421.365z"/>
</g>
<g>
	<polygon fill="#BED875" points="918.925,560.377 422.166,626.498 393.381,410.596 890.204,344.473 	"/>
	<polygon fill="#AACE55" points="907.717,552 430.745,615.467 404.615,418.998 881.6,355.544 	"/>
	<path fill="#BED875" d="M676.903,522.887c0,0,0,0,0.025-0.047l-1.697-12.771c18.996-10.756,30.432-36.043,26.77-63.619
		c-4.553-34.193-29.5-49.855-57.238-46.232c-27.614,3.725-47.63,25.35-43.063,59.594c3.675,27.562,21.311,48.949,42.521,54.385
		l1.649,12.744c0,0,0.05,0,0.061,0c-24.77,8.592-43.664,28.67-51.439,53.529l146.046-19.449
		C726.546,539.066,703.009,524.574,676.903,522.887z"/>
	<path fill="#BED875" d="M873.373,401.5c2.149,16.104-9.172,30.885-25.3,33.023c-16.066,2.215-30.911-9.184-33.073-25.299
		c-2.126-16.09,9.196-30.898,25.311-33.049C856.389,374.074,871.222,385.371,873.373,401.5z"/>
	<path fill="#BED875" d="M889.701,524.359c1.03,7.711-4.378,14.758-12.103,15.791c-7.661,1.041-14.758-4.318-15.764-12.068
		c-1.018-7.725,4.43-14.768,12.066-15.812C881.638,511.275,888.681,516.674,889.701,524.359z"/>
	<path fill="#BED875" d="M470.197,580.154c1.057,7.711-4.391,14.807-12.064,15.85c-7.663,0.994-14.77-4.402-15.814-12.102
		c-1.006-7.723,4.429-14.744,12.103-15.812C462.132,567.096,469.19,572.43,470.197,580.154z"/>
	<path fill="#BED875" d="M484.349,453.256c2.152,16.115-9.157,30.922-25.311,33.074c-16.127,2.125-30.884-9.158-33.023-25.312
		c-2.164-16.141,9.159-30.896,25.262-33.049C467.404,425.805,482.199,437.178,484.349,453.256z"/>
</g>
<g>
	<polygon fill="#BED875" points="860.804,660.09 359.93,642.867 367.454,425.178 868.302,442.422 	"/>
	<polygon fill="#AACE55" points="851.143,649.988 370.259,633.369 377.09,435.316 858,451.896 	"/>
	<path fill="#BED875" d="M628.407,582.934c0.013-0.025,0.013-0.025-0.024-0.061l0.439-12.871
		c20.531-7.447,36.056-30.471,36.999-58.234c1.221-34.535-20.82-54.109-48.748-55.064c-27.916-0.98-51.202,17.07-52.41,51.605
		c-0.943,27.75,12.906,51.818,32.873,60.648l-0.391,12.82c0,0.062,0,0.062-0.013,0.062c-25.839,4.328-47.805,20.982-59.593,44.23
		l147.277,5.072C674.601,607.127,653.808,588.947,628.407,582.934z"/>
	<path fill="#BED875" d="M842.285,495.854c-0.579,16.217-14.19,28.945-30.481,28.355c-16.227-0.504-28.947-14.152-28.381-30.395
		c0.554-16.229,14.165-28.936,30.381-28.381C830.083,466.012,842.802,479.611,842.285,495.854z"/>
	<path fill="#BED875" d="M838.022,619.744c-0.303,7.75-6.781,13.814-14.594,13.525c-7.725-0.254-13.826-6.758-13.562-14.506
		c0.302-7.801,6.807-13.826,14.557-13.551C832.184,605.504,838.249,611.92,838.022,619.744z"/>
	<path fill="#BED875" d="M415.057,605.162c-0.264,7.75-6.768,13.828-14.529,13.537c-7.789-0.252-13.852-6.742-13.587-14.518
		c0.289-7.773,6.806-13.838,14.531-13.535C409.233,590.91,415.334,597.391,415.057,605.162z"/>
	<path fill="#BED875" d="M450.056,482.316c-0.58,16.266-14.204,28.973-30.42,28.418c-16.278-0.551-28.984-14.201-28.442-30.406
		c0.552-16.254,14.19-28.973,30.442-28.418C437.865,452.475,450.609,466.088,450.056,482.316z"/>
</g>
<g>
	<polygon fill="#BED875" points="745.278,771.688 279.705,586.268 360.182,383.938 825.831,569.297 	"/>
	<polygon fill="#AACE55" points="739.631,758.871 292.575,580.908 365.844,396.744 812.886,574.73 	"/>
	<path fill="#BED875" d="M552.61,620.562c-0.062-0.051-0.062-0.051-0.062-0.051l4.78-11.99
		c21.865-0.074,44.207-16.504,54.499-42.332c12.744-32.066-1.283-57.934-27.262-68.336c-25.966-10.305-54.047-1.197-66.752,30.898
		c-10.253,25.84-5.333,53.164,10.467,68.195l-4.756,11.979c0,0,0,0,0.014,0.037c-25.815-4.604-52.133,3.611-70.979,21.451
		l136.836,54.482C587.898,658.982,574.475,634.814,552.61,620.562z"/>
	<path fill="#BED875" d="M783.271,610.748c-5.986,15.098-23.109,22.471-38.219,16.43c-15.096-5.936-22.506-23.098-16.49-38.18
		c6.036-15.084,23.158-22.494,38.279-16.48C781.85,578.605,789.31,595.654,783.271,610.748z"/>
	<path fill="#BED875" d="M737.467,725.947c-2.92,7.234-11.083,10.666-18.294,7.85c-7.244-2.918-10.767-11.02-7.886-18.266
		c2.855-7.211,11.083-10.705,18.292-7.875C736.8,710.512,740.321,718.701,737.467,725.947z"/>
	<path fill="#BED875" d="M344.243,569.449c-2.868,7.182-11.083,10.752-18.279,7.91c-7.196-2.955-10.706-11.094-7.838-18.328
		c2.844-7.17,11.033-10.707,18.293-7.875C343.613,554.023,347.124,562.178,344.243,569.449z"/>
	<path fill="#BED875" d="M418.63,465.672c-5.988,15.084-23.098,22.43-38.206,16.432c-15.097-6.014-22.494-23.1-16.455-38.244
		c5.988-15.086,23.047-22.494,38.219-16.406C417.296,433.404,424.619,450.537,418.63,465.672z"/>
</g>
<path fill="#4A4E4D" d="M532.23,729.408c0,7.205-5.837,13.043-13.045,13.043c0,0-121.993,8.732-231.492,8.732
	s-231.478-8.732-231.478-8.732c-7.208,0-13.045-5.838-13.045-13.043V408.219c0-7.209,5.837-13.047,13.045-13.047
	c0,0,131.59-21.863,222.735-21.863c91.145,0,240.235,21.863,240.235,21.863c7.208,0,13.045,5.838,13.045,13.047V729.408z"/>
<path fill="#FFFFFF" d="M332.001,705.291c0,4.77,3.862,8.629,8.63,8.629h135.792c4.755,0,8.629-3.859,8.629-8.629l0,0
	c0-4.771-3.874-8.631-8.629-8.631H340.632C335.863,696.66,332.001,700.52,332.001,705.291L332.001,705.291z"/>
</svg>
