<?xml version="1.0" encoding="utf-8"?>
<!-- Generator: Adobe Illustrator 16.0.0, SVG Export Plug-In . SVG Version: 6.00 Build 0)  -->
<!DOCTYPE svg PUBLIC "-//W3C//DTD SVG 1.1//EN" "http://www.w3.org/Graphics/SVG/1.1/DTD/svg11.dtd">
<svg version="1.1" id="Layer_1" xmlns="http://www.w3.org/2000/svg" xmlns:xlink="http://www.w3.org/1999/xlink" x="0px" y="0px"
	 width="1000px" height="1000px" viewBox="0 0 1000 1000" enable-background="new 0 0 1000 1000" xml:space="preserve">
<path d="M638.098,648.764c0,7.209-5.837,13.047-13.046,13.047c0,0-76.979,15.916-246.584,15.916
	c-169.609,0-216.382-15.916-216.382-15.916c-7.208,0-13.046-5.838-13.046-13.047c0,0-13.197-49.779-13.197-163.568
	s-21.65-143.051-21.65-143.051c0-7.197,5.838-13.046,13.047-13.046c0,0,66.576-36.421,249.078-36.421
	c182.497,0,248.734,21.853,248.734,21.853c7.209,0,13.046,5.851,13.046,13.046c0,0,10.896,80.326,10.896,157.619
	S638.098,648.764,638.098,648.764z"/>
<g>
	<polygon fill="#BED875" points="779.022,792.607 285.437,705.906 323.038,491.422 816.663,578.064 	"/>
	<polygon fill="#AACE55" points="770.896,781.225 296.974,698.029 331.179,502.807 805.103,586.025 	"/>
	<path fill="#BED875" d="M559.597,683.889c-0.077-0.037-0.077-0.037-0.077-0.037l2.253-12.707
		c21.424-4.516,39.943-25.148,44.749-52.549c5.961-33.992-13.086-56.459-40.622-61.352c-27.514-4.781-53.14,9.85-59.028,43.867
		c-4.791,27.375,5.587,53.1,24.131,64.635l-2.229,12.693c0,0,0,0,0.025,0.014c-26.229,0.768-50.282,14.154-65.152,35.465
		l145.102,25.479C601.979,714.32,583.926,693.387,559.597,683.889z"/>
	<path fill="#BED875" d="M783.438,627.33c-2.792,15.975-18.041,26.693-34.055,23.861c-16.002-2.744-26.733-18.037-23.928-34.029
		c2.832-15.99,18.089-26.77,34.105-23.939C775.512,596.115,786.27,611.297,783.438,627.33z"/>
	<path fill="#BED875" d="M762.038,749.42c-1.372,7.676-8.644,12.732-16.291,11.41c-7.661-1.371-12.781-8.619-11.422-16.268
		c1.344-7.635,8.667-12.742,16.29-11.434C758.253,734.449,763.36,741.773,762.038,749.42z"/>
	<path fill="#BED875" d="M345.193,676.254c-1.335,7.635-8.667,12.805-16.291,11.498c-7.612-1.41-12.694-8.682-11.374-16.332
		c1.321-7.596,8.617-12.73,16.292-11.459C341.444,661.309,346.563,668.58,345.193,676.254z"/>
	<path fill="#BED875" d="M396.923,559.547c-2.805,15.951-18.077,26.67-34.08,23.863c-15.989-2.816-26.733-18.055-23.904-34.105
		c2.808-15.99,17.992-26.707,34.094-23.852C389.022,528.207,399.691,543.48,396.923,559.547z"/>
</g>
<g>
	<polygon fill="#BED875" points="542.487,18.111 641.369,509.4 427.92,552.438 328.964,61.137 	"/>
	<polygon fill="#AACE55" points="534.826,29.824 629.845,501.535 435.558,540.711 340.577,69.013 	"/>
	<path fill="#BED875" d="M521.088,262.057c-0.025,0.063-0.025,0.063-0.025,0.063l-12.63,2.542
		c-12.028-18.293-37.969-28.055-65.239-22.544c-33.815,6.818-47.843,32.722-42.357,60.159c5.562,27.362,28.517,45.918,62.332,39.023
		c27.248-5.522,47.427-24.544,51.429-46.006l12.618-2.541c0,0,0,0,0.024-0.025c10.241,24.142,31.463,41.679,56.737,47.755
		l-29.073-144.41C534.007,211.497,521.062,235.928,521.088,262.057z"/>
	<path fill="#BED875" d="M386.923,74.145c15.901-3.207,31.438,7.084,34.632,23.035c3.258,15.927-7.069,31.488-22.996,34.684
		c-15.913,3.184-31.501-7.12-34.708-23.06C360.729,92.877,370.972,77.34,386.923,74.145z"/>
	<path fill="#BED875" d="M508.444,49.639c7.638-1.51,14.983,3.447,16.543,11.033c1.511,7.623-3.372,15.033-10.996,16.556
		c-7.599,1.547-15.021-3.422-16.568-11.009C495.864,58.621,500.82,51.211,508.444,49.639z"/>
	<path fill="#BED875" d="M592.016,464.516c7.598-1.525,15.097,3.42,16.632,10.992c1.458,7.623-3.459,14.996-11.059,16.555
		c-7.56,1.523-15.009-3.406-16.631-11.018C579.449,473.445,584.366,466.061,592.016,464.516z"/>
	<path fill="#BED875" d="M464.464,458.84c15.889-3.209,31.425,7.131,34.633,23.035c3.209,15.938-7.069,31.475-23.033,34.682
		c-15.915,3.223-31.448-7.029-34.633-23.07C438.173,477.584,448.514,462.098,464.464,458.84z"/>
</g>
<g>
	<polygon fill="#BED875" points="663.899,71.566 654.677,572.604 436.89,568.65 446.148,67.527 	"/>
	<polygon fill="#AACE55" points="653.96,81.403 645.042,562.477 446.891,558.803 455.798,77.718 	"/>
	<path fill="#BED875" d="M590.493,305.195c0,0,0,0-0.051-0.025l-12.857-0.226c-7.8-20.405-31.085-35.489-58.876-36.03
		c-34.508-0.629-53.741,21.688-54.32,49.654c-0.477,27.84,17.913,50.875,52.446,51.504c27.803,0.516,51.593-13.699,60.134-33.854
		l12.857,0.289l0.013-0.062c4.792,25.789,21.802,47.479,45.202,58.889l2.715-147.316
		C613.956,258.548,596.065,279.658,590.493,305.195z"/>
	<path fill="#BED875" d="M499.99,92.739c16.241,0.289,29.148,13.712,28.846,29.991c-0.213,16.203-13.725,29.16-29.99,28.871
		c-16.217-0.301-29.149-13.711-28.847-29.965C470.327,105.407,483.725,92.449,499.99,92.739z"/>
	<path fill="#BED875" d="M623.92,95.041c7.762,0.151,13.938,6.541,13.786,14.342c-0.137,7.725-6.489,13.938-14.314,13.775
		c-7.763-0.176-13.915-6.605-13.801-14.316C609.767,101.055,616.156,94.891,623.92,95.041z"/>
	<path fill="#BED875" d="M616.056,518.168c7.789,0.111,13.99,6.566,13.876,14.33c-0.175,7.711-6.579,13.912-14.342,13.801
		c-7.786-0.164-13.938-6.594-13.825-14.354C601.955,524.182,608.281,518.006,616.056,518.168z"/>
	<path fill="#BED875" d="M492.742,485.131c16.243,0.289,29.189,13.688,28.888,29.969c-0.315,16.277-13.676,29.174-29.98,28.873
		c-16.279-0.293-29.185-13.717-28.883-29.943C463.043,497.752,476.504,484.844,492.742,485.131z"/>
</g>
<g>
	<polygon fill="#BED875" points="753.762,143.991 661.509,636.586 447.432,596.482 539.682,103.897 	"/>
	<polygon fill="#AACE55" points="742.327,152.029 653.672,624.975 458.904,588.467 547.507,115.509 	"/>
	<path fill="#BED875" d="M642.563,362.172c-0.012-0.014-0.012-0.014-0.051,0.025l-12.657-2.379
		c-4.275-21.436-24.706-40.219-52.03-45.326c-33.942-6.378-56.625,12.455-61.743,39.93c-5.159,27.451,9.183,53.189,43.149,59.568
		c27.286,5.096,53.151-4.982,64.876-23.4l12.63,2.342c0.062-0.014,0.062-0.014,0.076,0c0.391,26.191,13.551,50.41,34.773,65.568
		l27.108-144.863C673.423,320.141,652.339,337.955,642.563,362.172z"/>
	<path fill="#BED875" d="M588.594,137.65c15.939,3.007,26.494,18.381,23.477,34.369c-2.945,15.979-18.369,26.508-34.32,23.5
		c-15.952-2.969-26.482-18.342-23.514-34.293C557.281,145.225,572.616,134.682,588.594,137.65z"/>
	<path fill="#BED875" d="M710.461,160.459c7.609,1.471,12.643,8.781,11.17,16.467c-1.42,7.6-8.769,12.656-16.38,11.236
		c-7.674-1.486-12.644-8.795-11.208-16.443C695.489,164.107,702.748,159.075,710.461,160.459z"/>
	<path fill="#BED875" d="M632.512,576.441c7.637,1.434,12.657,8.768,11.196,16.404c-1.409,7.648-8.742,12.678-16.38,11.258
		c-7.66-1.457-12.668-8.805-11.222-16.43C617.553,580.064,624.875,575.02,632.512,576.441z"/>
	<path fill="#BED875" d="M516.333,523.389c15.988,3.02,26.493,18.416,23.512,34.357c-3.007,16.014-18.405,26.52-34.319,23.537
		c-16.015-2.994-26.519-18.379-23.539-34.355C484.983,530.951,500.356,520.422,516.333,523.389z"/>
</g>
<g>
	<polygon fill="#BED875" points="840.313,283.041 555.683,695.512 376.431,571.898 661.007,159.365 	"/>
	<polygon fill="#AACE55" points="826.562,285.671 553.33,681.75 390.167,569.246 663.409,173.19 	"/>
	<path fill="#BED875" d="M649.998,437.139c-0.063,0.037-0.063,0.037-0.063,0.037l-10.605-7.322
		c4.808-21.359-6.201-46.799-29.109-62.586c-28.407-19.588-56.774-11.676-72.703,11.334c-15.812,23.01-13.207,52.41,15.247,71.947
		c22.909,15.764,50.612,17.061,68.814,5.02l10.606,7.309c0,0,0,0,0.025,0c-10.24,24.143-8.103,51.592,5.082,73.986l83.659-121.25
		C695.338,411.312,668.781,418.973,649.998,437.139z"/>
	<path fill="#BED875" d="M691.929,210.088c13.349,9.209,16.743,27.539,7.486,40.912c-9.185,13.41-27.552,16.795-40.913,7.561
		c-13.347-9.234-16.77-27.602-7.535-40.986C660.252,204.263,678.544,200.842,691.929,210.088z"/>
	<path fill="#BED875" d="M793.981,280.463c6.391,4.441,7.938,13.172,3.572,19.562c-4.441,6.391-13.16,8.025-19.549,3.598
		c-6.393-4.391-7.989-13.184-3.6-19.562C778.783,277.658,787.564,276.072,793.981,280.463z"/>
	<path fill="#BED875" d="M553.671,628.824c6.379,4.406,8.025,13.236,3.647,19.6c-4.465,6.342-13.183,7.939-19.587,3.549
		c-6.353-4.379-7.976-13.16-3.623-19.611C538.522,625.992,547.256,624.395,553.671,628.824z"/>
	<path fill="#BED875" d="M469.13,533.152c13.349,9.197,16.708,27.549,7.5,40.91c-9.234,13.385-27.551,16.783-40.947,7.521
		c-13.373-9.207-16.795-27.498-7.473-40.934C437.38,527.264,455.708,523.941,469.13,533.152z"/>
</g>
<g>
	<polygon fill="#BED875" points="886.23,407.498 519.478,748.994 370.997,589.613 737.835,248.08 	"/>
	<polygon fill="#AACE55" points="872.244,407.184 520.067,735.027 385.034,589.963 737.206,262.107 	"/>
	<path fill="#BED875" d="M667.196,517.035c0,0,0,0-0.013-0.051l-8.769-9.408c9.26-19.789,3.925-47.012-14.996-67.381
		c-23.523-25.248-52.938-23.576-73.457-4.566c-20.354,19.008-24.142,48.232-0.604,73.506c18.947,20.355,45.705,27.59,66.137,19.725
		l8.717,9.449c0,0,0.063-0.023,0.063-0.035c-15.223,21.359-19.009,48.672-10.946,73.428l107.827-100.4
		C717.052,501.498,689.438,503.299,667.196,517.035z"/>
	<path fill="#BED875" d="M757.118,304.328c11.072,11.875,10.395,30.494-1.532,41.576c-11.801,11.109-30.508,10.404-41.604-1.496
		c-11.045-11.875-10.39-30.494,1.511-41.578C727.393,291.797,746.024,292.427,757.118,304.328z"/>
	<path fill="#BED875" d="M841.558,395.057c5.285,5.686,4.983,14.568-0.728,19.877c-5.649,5.271-14.53,5.02-19.852-0.717
		c-5.272-5.713-4.919-14.605,0.703-19.877C827.407,389.057,836.275,389.371,841.558,395.057z"/>
	<path fill="#BED875" d="M531.793,683.398c5.321,5.674,4.994,14.617-0.666,19.928c-5.674,5.232-14.581,4.945-19.891-0.729
		c-5.297-5.713-4.944-14.594,0.719-19.906C517.665,677.436,526.51,677.686,531.793,683.398z"/>
	<path fill="#BED875" d="M469.874,571.748c11.084,11.889,10.44,30.508-1.484,41.602c-11.926,11.084-30.482,10.43-41.589-1.496
		c-11.106-11.914-10.415-30.52,1.459-41.578C440.16,559.168,458.804,559.873,469.874,571.748z"/>
</g>
<g>
	<polygon fill="#BED875" points="896.573,522.447 478.202,798.355 358.313,616.533 776.67,340.622 	"/>
	<polygon fill="#AACE55" points="882.848,519.805 481.108,784.656 372.04,619.213 773.752,354.322 	"/>
	<path fill="#BED875" d="M662.401,594.066c0-0.014,0-0.014-0.051-0.014l-7.093-10.754c12.454-17.969,11.762-45.719-3.548-68.916
		c-18.997-28.85-48.296-32.068-71.619-16.67c-23.327,15.373-31.867,43.566-12.858,72.426c15.298,23.172,40.507,34.771,61.907,30.406
		l7.096,10.705c0.05,0.037,0.05,0.037,0.05,0.047c-18.567,18.484-26.847,44.775-22.995,70.582l123.022-81.158
		C714.069,587.061,686.607,584.275,662.401,594.066z"/>
	<path fill="#BED875" d="M786.382,399.26c8.906,13.549,5.183,31.826-8.417,40.76c-13.534,8.982-31.815,5.209-40.748-8.354
		c-8.944-13.537-5.207-31.791,8.328-40.736C759.169,381.998,777.412,385.709,786.382,399.26z"/>
	<path fill="#BED875" d="M854.644,502.744c4.226,6.506,2.464,15.197-4.077,19.475c-6.453,4.264-15.194,2.49-19.461-3.963
		c-4.265-6.553-2.452-15.207,4.038-19.486C841.622,494.518,850.276,496.24,854.644,502.744z"/>
	<path fill="#BED875" d="M501.312,735.721c4.277,6.479,2.49,15.197-4.013,19.449c-6.479,4.303-15.197,2.516-19.476-3.965
		c-4.277-6.518-2.478-15.223,4.014-19.473C488.314,727.48,497.035,729.229,501.312,735.721z"/>
	<path fill="#BED875" d="M458.741,615.299c8.943,13.602,5.171,31.842-8.367,40.789c-13.598,8.955-31.852,5.18-40.77-8.342
		c-8.971-13.586-5.208-31.842,8.352-40.785C431.53,598.004,449.782,601.74,458.741,615.299z"/>
</g>
<g>
	<polygon fill="#BED875" points="866.973,680.316 380.027,798.672 328.523,587.119 815.479,468.664 	"/>
	<polygon fill="#AACE55" points="854.957,673.145 387.399,786.848 340.526,594.291 808.083,480.604 	"/>
	<path fill="#BED875" d="M622.383,668.629c-0.087,0.01-0.087,0.01-0.087,0.01l-3.031-12.527
		c17.777-12.744,26.495-39.062,19.939-66.084c-8.189-33.514-34.608-46.498-61.795-39.928c-27.148,6.615-44.76,30.303-36.532,63.832
		c6.592,27.008,26.417,46.422,48.019,49.539l3.044,12.518c0,0,0,0,0.013,0.025c-23.715,11.186-40.395,33.123-45.439,58.586
		l143.113-34.797C673.384,679.535,648.476,667.598,622.383,668.629z"/>
	<path fill="#BED875" d="M804.775,527.111c3.861,15.764-5.825,31.705-21.652,35.518c-15.737,3.887-31.714-5.814-35.539-21.59
		c-3.812-15.801,5.862-31.738,21.676-35.588C785.023,501.727,800.962,511.301,804.775,527.111z"/>
	<path fill="#BED875" d="M834.124,647.557c1.811,7.586-2.844,15.123-10.353,16.973c-7.612,1.824-15.171-2.732-17.034-10.305
		c-1.825-7.549,2.855-15.133,10.354-17.021C824.651,635.355,832.262,639.996,834.124,647.557z"/>
	<path fill="#BED875" d="M422.889,747.584c1.824,7.51-2.793,15.195-10.315,17.02c-7.572,1.775-15.146-2.844-17.008-10.391
		c-1.812-7.484,2.806-15.109,10.354-17.01C413.452,735.381,421.051,739.998,422.889,747.584z"/>
	<path fill="#BED875" d="M423.479,619.916c3.851,15.777-5.86,31.654-21.649,35.527c-15.775,3.814-31.701-5.836-35.564-21.676
		c-3.824-15.762,5.775-31.676,21.689-35.5C403.718,594.377,419.604,604.104,423.479,619.916z"/>
</g>
<g>
	<polygon fill="#BED875" points="685.021,886.258 221.718,695.287 304.671,493.877 768.053,684.896 	"/>
	<polygon fill="#AACE55" points="679.499,873.385 234.674,690.014 310.207,506.783 755.044,690.164 	"/>
	<path fill="#BED875" d="M494.141,732.826c0,0,0,0,0.05-0.025l4.906-11.9c21.827,0.186,44.358-16.027,54.978-41.729
		c13.133-31.891-0.655-57.934-26.483-68.652c-25.777-10.58-53.895-1.836-67.077,30.094c-10.579,25.701-5.999,53.051,9.661,68.348
		l-4.943,11.865c0,0,0.051,0.037,0.063,0.037c-25.764-4.932-52.169,3.02-71.315,20.656l136.217,56.146
		C529.052,771.674,515.917,747.318,494.141,732.826z"/>
	<path fill="#BED875" d="M724.976,725.895c-6.187,14.994-23.385,22.141-38.432,15.939c-15.021-6.113-22.178-23.4-16.002-38.445
		c6.203-14.998,23.398-22.178,38.445-15.977C723.97,693.639,731.167,710.824,724.976,725.895z"/>
	<path fill="#BED875" d="M677.724,840.465c-2.979,7.17-11.156,10.594-18.365,7.623c-7.17-2.943-10.643-11.121-7.624-18.342
		c2.982-7.184,11.197-10.58,18.331-7.662C677.285,825.102,680.694,833.268,677.724,840.465z"/>
	<path fill="#BED875" d="M286.468,679.119c-2.918,7.223-11.197,10.646-18.367,7.725c-7.121-2.98-10.58-11.193-7.637-18.379
		c2.97-7.197,11.209-10.578,18.393-7.658C286.015,663.799,289.476,671.951,286.468,679.119z"/>
	<path fill="#BED875" d="M362.151,576.303c-6.176,15.033-23.374,22.205-38.459,15.99c-15.032-6.229-22.166-23.363-15.963-38.42
		c6.188-15.061,23.386-22.195,38.406-16.029C361.183,544.047,368.316,561.281,362.151,576.303z"/>
</g>
<g>
	<polygon fill="#BED875" points="584.87,943.6 159.646,678.34 274.933,493.574 700.131,758.793 	"/>
	<polygon fill="#AACE55" points="581.535,930 173.32,675.295 278.202,507.162 686.481,761.838 	"/>
	<path fill="#BED875" d="M422.12,760.592c0.039,0,0.039,0,0.014-0.037l6.807-10.947c21.523,3.826,46.456-8.365,61.149-31.953
		c18.316-29.299,9.033-57.25-14.705-72.047c-23.702-14.795-52.875-10.807-71.164,18.504c-14.706,23.566-14.733,51.328-1.85,68.969
		l-6.743,10.895c-0.038,0.061-0.038,0.061-0.038,0.061c-24.544-9.172-51.907-5.711-73.745,8.518l125.032,78
		C450.048,804.648,441.128,778.504,422.12,760.592z"/>
	<path fill="#BED875" d="M650.903,792.041c-8.617,13.752-26.782,17.99-40.57,9.361c-13.813-8.557-18.004-26.734-9.41-40.51
		c8.592-13.773,26.746-17.99,40.508-9.41C655.244,760.113,659.472,778.254,650.903,792.041z"/>
	<path fill="#BED875" d="M585.298,897.252c-4.14,6.555-12.795,8.58-19.398,4.414c-6.556-4.076-8.594-12.754-4.518-19.348
		c4.177-6.604,12.807-8.58,19.387-4.453C587.349,881.98,589.4,890.572,585.298,897.252z"/>
	<path fill="#BED875" d="M226.221,673.234c-4.114,6.604-12.78,8.604-19.36,4.467c-6.607-4.092-8.631-12.76-4.517-19.336
		c4.151-6.621,12.819-8.605,19.374-4.492C228.283,657.971,230.321,666.643,226.221,673.234z"/>
	<path fill="#BED875" d="M317.907,584.326c-8.618,13.791-26.784,17.992-40.547,9.412c-13.826-8.619-17.99-26.785-9.41-40.535
		c8.579-13.836,26.758-18.027,40.559-9.408C322.297,552.387,326.524,570.541,317.907,584.326z"/>
</g>
<g>
	<polygon fill="#BED875" points="429.026,982.498 118.419,589.234 289.224,454.221 599.94,847.445 	"/>
	<polygon fill="#AACE55" points="430.536,968.596 132.246,591.035 287.713,468.125 586.002,845.697 	"/>
	<path fill="#BED875" d="M337.657,755.307c-0.012-0.051-0.012-0.051-0.012-0.051l10.113-8c18.984,10.869,46.561,7.787,68.373-9.424
		c27.062-21.41,27.827-50.838,10.53-72.814c-17.337-21.9-46.206-28.053-73.242-6.604c-21.813,17.262-31.187,43.377-25.022,64.312
		l-10.114,7.986c0,0,0,0-0.013,0.025c-20.039-16.896-46.937-22.91-72.185-16.883l91.308,115.564
		C349.044,806.221,349.496,778.594,337.657,755.307z"/>
	<path fill="#BED875" d="M542.36,862.076c-12.73,10.09-31.236,7.939-41.325-4.855c-10.091-12.68-7.926-31.25,4.817-41.314
		c12.771-10.037,31.301-7.912,41.378,4.869C557.206,833.545,555.143,852.039,542.36,862.076z"/>
	<path fill="#BED875" d="M445.117,938.98c-6.141,4.832-14.921,3.725-19.751-2.352c-4.83-6.127-3.838-14.92,2.278-19.766
		c6.087-4.803,14.944-3.709,19.774,2.316C452.263,925.293,451.204,934.137,445.117,938.98z"/>
	<path fill="#BED875" d="M182.729,606.896c-6.062,4.793-14.969,3.799-19.776-2.262c-4.767-6.152-3.734-14.947,2.353-19.789
		c6.065-4.781,14.91-3.775,19.777,2.312C189.876,593.248,188.845,602.066,182.729,606.896z"/>
	<path fill="#BED875" d="M299.011,554.199c-12.72,10.076-31.213,7.887-41.314-4.844c-10.052-12.77-7.926-31.252,4.881-41.365
		c12.719-10.064,31.187-7.977,41.303,4.893C313.992,525.592,311.78,544.098,299.011,554.199z"/>
</g>
<path fill="#1D1E1E" d="M550.337,686.885c-38.684,4.566-106.704,10.164-207.32,10.164c-169.609,0-216.383-15.914-216.383-15.914
	c-7.208,0-13.046-5.84-13.046-13.047c0,0-13.196-49.779-13.196-163.57c0-113.789,13.196-157.619,13.196-157.619
	c0-7.194,5.838-13.045,13.046-13.045c0,0,31.729-21.853,214.23-21.853c118.58,0,188.086,9.234,222.217,15.688
	c34.96,6.617,38.797,14.594,45.881,39.867c7.687,27.424,19.649,78.514,19.649,130.975c0,52.596-12.028,112.127-19.713,144.799
	C601.815,673.447,587.159,682.555,550.337,686.885z"/>
<path fill="#FFFFFF" d="M402.422,643.986c0,4.752,3.861,8.629,8.63,8.629h135.786c4.757,0,8.632-3.877,8.632-8.629l0,0
	c0-4.77-3.875-8.631-8.632-8.631H411.052C406.283,635.355,402.422,639.217,402.422,643.986L402.422,643.986z"/>
</svg>
