<?xml version="1.0" encoding="utf-8"?>
<!-- Generator: Adobe Illustrator 16.0.0, SVG Export Plug-In . SVG Version: 6.00 Build 0)  -->
<!DOCTYPE svg PUBLIC "-//W3C//DTD SVG 1.1//EN" "http://www.w3.org/Graphics/SVG/1.1/DTD/svg11.dtd">
<svg version="1.1" id="Layer_1" xmlns="http://www.w3.org/2000/svg" xmlns:xlink="http://www.w3.org/1999/xlink" x="0px" y="0px"
	 width="1000px" height="1000px" viewBox="0 0 1000 1000" enable-background="new 0 0 1000 1000" xml:space="preserve">
<g>
	<path fill="#B2BAC1" d="M982.768,498.178c0,267.724-217.031,484.769-484.755,484.769c-267.731,0-484.761-217.045-484.761-484.769
		c0-267.717,217.03-484.747,484.761-484.747C765.736,13.431,982.768,230.461,982.768,498.178z"/>
	<g>
		<path fill="#FFFFFF" d="M294.54,393.369h-93.777v-33.851h228.269v33.851h-94.247v274.475H294.54V393.369z"/>
		<path fill="#FFFFFF" d="M723.116,532.441c-2.305-43.005-5.036-95.157-5.036-133.119h-0.91
			c-10.982,35.679-23.33,74.565-38.894,117.107l-54.429,149.593H593.66l-50.33-146.854c-14.653-43.915-26.539-83.25-35.23-119.846
			h-0.911c-0.911,38.424-3.2,89.659-5.946,136.32l-8.237,132.201h-37.969l21.51-308.325h50.765l52.607,149.13
			c12.804,37.962,22.875,71.819,31.127,103.842h0.91c8.223-31.111,19.205-64.955,32.919-103.842l54.911-149.13h50.759
			l19.233,308.325h-39.35L723.116,532.441z"/>
	</g>
</g>
</svg>
